<?xml version="1.0" standalone="no"?>
<svg xmlns:xlink="http://www.w3.org/1999/xlink" id="wave" style="transform:rotate(0deg); transition: 0.3s" viewBox="0 0 1440 490" version="1.1" xmlns="http://www.w3.org/2000/svg"><defs><linearGradient id="sw-gradient-0" x1="0" x2="0" y1="1" y2="0"><stop stop-color="rgba(243, 106, 62, 1)" offset="0%"/><stop stop-color="rgba(255, 179, 11, 1)" offset="100%"/></linearGradient></defs><path style="transform:translate(0, 0px); opacity:1" fill="url(#sw-gradient-0)" d="M0,245L18.5,269.5C36.9,294,74,343,111,351.2C147.7,359,185,327,222,269.5C258.5,212,295,131,332,114.3C369.2,98,406,147,443,212.3C480,278,517,359,554,375.7C590.8,392,628,343,665,310.3C701.5,278,738,261,775,228.7C812.3,196,849,147,886,155.2C923.1,163,960,229,997,277.7C1033.8,327,1071,359,1108,318.5C1144.6,278,1182,163,1218,122.5C1255.4,82,1292,114,1329,122.5C1366.2,131,1403,114,1440,155.2C1476.9,196,1514,294,1551,318.5C1587.7,343,1625,294,1662,294C1698.5,294,1735,343,1772,334.8C1809.2,327,1846,261,1883,204.2C1920,147,1957,98,1994,114.3C2030.8,131,2068,212,2105,212.3C2141.5,212,2178,131,2215,81.7C2252.3,33,2289,16,2326,8.2C2363.1,0,2400,0,2437,0C2473.8,0,2511,0,2548,0C2584.6,0,2622,0,2640,0L2658.5,0L2658.5,490L2640,490C2621.5,490,2585,490,2548,490C2510.8,490,2474,490,2437,490C2400,490,2363,490,2326,490C2289.2,490,2252,490,2215,490C2178.5,490,2142,490,2105,490C2067.7,490,2031,490,1994,490C1956.9,490,1920,490,1883,490C1846.2,490,1809,490,1772,490C1735.4,490,1698,490,1662,490C1624.6,490,1588,490,1551,490C1513.8,490,1477,490,1440,490C1403.1,490,1366,490,1329,490C1292.3,490,1255,490,1218,490C1181.5,490,1145,490,1108,490C1070.8,490,1034,490,997,490C960,490,923,490,886,490C849.2,490,812,490,775,490C738.5,490,702,490,665,490C627.7,490,591,490,554,490C516.9,490,480,490,443,490C406.2,490,369,490,332,490C295.4,490,258,490,222,490C184.6,490,148,490,111,490C73.8,490,37,490,18,490L0,490Z"/></svg>